<?xml version="1.0" standalone="no"?>
<!DOCTYPE svg PUBLIC "-//W3C//DTD SVG 20010904//EN"
 "http://www.w3.org/TR/2001/REC-SVG-20010904/DTD/svg10.dtd">
<svg version="1.0" xmlns="http://www.w3.org/2000/svg"
 width="200.000000pt" height="200.000000pt" viewBox="0 0 200.000000 200.000000"
 preserveAspectRatio="xMidYMid meet">
<metadata>
Created by potrace 1.14, written by Peter Selinger 2001-2017
</metadata>
<g transform="translate(0.000000,200.000000) scale(0.100000,-0.100000)"
fill="#000000" stroke="none">
<path d="M24 1751 c4 -6 14 -11 22 -11 12 0 14 -27 14 -159 0 -155 0 -159 -22
-167 -15 -5 21 -9 101 -11 142 -4 164 4 180 63 12 44 -8 103 -38 111 -18 5
-18 7 7 28 35 30 37 95 4 128 -20 20 -34 22 -148 25 -89 3 -124 0 -120 -7z
m104 -18 c-10 -2 -26 -2 -35 0 -10 3 -2 5 17 5 19 0 27 -2 18 -5z m72 -7 c29
-36 14 -127 -22 -132 -16 -2 -18 7 -18 72 0 56 3 74 14 74 7 0 19 -7 26 -14z
m73 -13 c-7 -2 -21 -2 -30 0 -10 3 -4 5 12 5 17 0 24 -2 18 -5z m17 -29 c0 -2
-9 -4 -20 -4 -11 0 -20 4 -20 9 0 5 9 7 20 4 11 -3 20 -7 20 -9z m-7 -21 c-7
-2 -21 -2 -30 0 -10 3 -4 5 12 5 17 0 24 -2 18 -5z m-155 -20 c-10 -2 -26 -2
-35 0 -10 3 -2 5 17 5 19 0 27 -2 18 -5z m155 0 c-7 -2 -21 -2 -30 0 -10 3 -4
5 12 5 17 0 24 -2 18 -5z m-155 -20 c-10 -2 -26 -2 -35 0 -10 3 -2 5 17 5 19
0 27 -2 18 -5z m127 -3 c3 -6 -1 -7 -9 -4 -18 7 -21 14 -7 14 6 0 13 -4 16
-10z m-142 -18 c2 7 7 11 10 8 3 -3 0 -13 -7 -22 -11 -15 -13 -15 -26 5 -12
20 -12 21 2 9 13 -10 17 -10 21 0z m95 -61 c17 -51 -2 -121 -34 -121 -11 0
-14 19 -14 79 0 73 1 79 19 74 11 -3 24 -17 29 -32z m39 14 c0 -8 -4 -12 -9
-9 -4 3 -8 9 -8 15 0 5 4 9 8 9 5 0 9 -7 9 -15z m48 -17 c5 4 5 1 1 -5 -11
-20 -23 -15 -29 10 -5 20 -5 20 7 5 7 -10 17 -14 21 -10z m-167 -5 c-10 -2
-26 -2 -35 0 -10 3 -2 5 17 5 19 0 27 -2 18 -5z m129 -9 c-3 -3 -12 -4 -19 -1
-8 3 -5 6 6 6 11 1 17 -2 13 -5z m-122 -44 c-1 -9 -13 -15 -28 -16 -15 -1 -24
2 -22 7 3 4 15 5 28 2 15 -4 19 -2 12 5 -5 5 -19 12 -30 15 -12 3 -7 5 11 4
23 -1 31 -6 29 -17z m153 3 c-10 -2 -26 -2 -35 0 -10 3 -2 5 17 5 19 0 27 -2
18 -5z m0 -20 c-10 -2 -28 -2 -40 0 -13 2 -5 4 17 4 22 1 32 -1 23 -4z m-160
-20 c-10 -2 -26 -2 -35 0 -10 3 -2 5 17 5 19 0 27 -2 18 -5z m150 0 c-10 -2
-26 -2 -35 0 -10 3 -2 5 17 5 19 0 27 -2 18 -5z m-150 -20 c-10 -2 -26 -2 -35
0 -10 3 -2 5 17 5 19 0 27 -2 18 -5z"/>
<path d="M345 1750 c-3 -5 3 -10 14 -10 20 0 21 -5 21 -159 0 -155 0 -159 -22
-167 -15 -5 27 -9 116 -11 76 -2 141 -2 143 1 2 2 3 37 1 77 l-3 74 -21 -46
c-26 -56 -60 -89 -91 -89 -22 0 -23 3 -23 75 0 59 3 75 15 75 16 0 48 -54 38
-64 -4 -3 1 -6 9 -6 14 0 16 14 15 85 -1 89 -15 112 -32 53 -6 -18 -18 -34
-27 -36 -16 -3 -18 5 -18 67 0 68 1 71 24 71 30 0 86 -51 86 -79 0 -12 6 -21
14 -21 10 0 13 16 13 60 l-1 60 -132 0 c-78 0 -135 -4 -139 -10z m103 -17
c-10 -2 -26 -2 -35 0 -10 3 -2 5 17 5 19 0 27 -2 18 -5z m149 1 c-3 -3 -12 -4
-19 -1 -8 3 -5 6 6 6 11 1 17 -2 13 -5z m-147 -38 c0 -2 -7 -7 -16 -10 -8 -3
-12 -2 -9 4 6 10 25 14 25 6z m7 -32 c-3 -3 -12 -4 -19 -1 -8 3 -5 6 6 6 11 1
17 -2 13 -5z m-9 -21 c-10 -2 -26 -2 -35 0 -10 3 -2 5 17 5 19 0 27 -2 18 -5z
m0 -20 c-10 -2 -26 -2 -35 0 -10 3 -2 5 17 5 19 0 27 -2 18 -5z m-15 -21 c2 7
7 11 10 8 3 -3 0 -13 -7 -22 -11 -15 -13 -15 -26 5 -12 20 -12 21 2 9 13 -10
17 -10 21 0z m15 -69 c-10 -2 -26 -2 -35 0 -10 3 -2 5 17 5 19 0 27 -2 18 -5z
m7 -53 c-3 -19 -35 -26 -46 -9 -11 19 -2 29 25 27 15 -1 23 -8 21 -18z m-7
-37 c-10 -2 -26 -2 -35 0 -10 3 -2 5 17 5 19 0 27 -2 18 -5z m0 -20 c-10 -2
-26 -2 -35 0 -10 3 -2 5 17 5 19 0 27 -2 18 -5z m145 0 c-7 -2 -19 -2 -25 0
-7 3 -2 5 12 5 14 0 19 -2 13 -5z"/>
<path d="M415 1480 c3 -5 13 -10 21 -10 8 0 12 5 9 10 -3 6 -13 10 -21 10 -8
0 -12 -4 -9 -10z"/>
<path d="M664 1688 c1 -47 5 -73 14 -76 7 -2 12 5 12 16 0 32 29 91 50 102 20
10 20 8 20 -150 0 -155 -1 -160 -21 -160 -11 0 -17 -4 -14 -10 8 -13 175 -13
175 -1 0 5 -8 11 -17 13 -16 3 -18 19 -18 161 0 86 3 157 7 157 14 0 48 -54
58 -91 17 -62 30 -46 30 36 l0 75 -149 0 -148 0 1 -72z m164 45 c-10 -2 -26
-2 -35 0 -10 3 -2 5 17 5 19 0 27 -2 18 -5z m109 1 c-3 -3 -12 -4 -19 -1 -8 3
-5 6 6 6 11 1 17 -2 13 -5z m-109 -91 c-10 -2 -26 -2 -35 0 -10 3 -2 5 17 5
19 0 27 -2 18 -5z m0 -20 c-10 -2 -26 -2 -35 0 -10 3 -2 5 17 5 19 0 27 -2 18
-5z m8 -25 c3 -5 1 -15 -5 -21 -9 -9 -11 -8 -6 6 4 9 3 17 -3 17 -6 0 -12 -5
-14 -12 -2 -6 -10 -8 -16 -4 -7 4 -10 11 -8 15 7 11 45 11 52 -1z m-8 -65
c-10 -2 -26 -2 -35 0 -10 3 -2 5 17 5 19 0 27 -2 18 -5z m-18 -49 c0 -7 8 -14
18 -17 9 -2 1 -4 -18 -4 -19 0 -29 2 -22 5 9 3 10 8 3 16 -8 9 -6 13 4 13 8 0
15 -6 15 -13z m18 -41 c-10 -2 -26 -2 -35 0 -10 3 -2 5 17 5 19 0 27 -2 18 -5z
m0 -20 c-10 -2 -26 -2 -35 0 -10 3 -2 5 17 5 19 0 27 -2 18 -5z"/>
<path d="M993 1685 c1 -55 4 -75 14 -75 7 0 13 10 13 23 0 26 40 99 58 105 9
3 12 -33 12 -157 0 -154 -1 -161 -20 -161 -11 0 -20 -4 -20 -10 0 -6 37 -10
90 -10 82 0 117 11 72 22 -17 5 -18 18 -18 156 1 83 4 153 7 157 10 10 48 -44
61 -86 17 -60 28 -46 28 36 l0 75 -149 0 -148 0 0 -75z m165 48 c-10 -2 -26
-2 -35 0 -10 3 -2 5 17 5 19 0 27 -2 18 -5z m109 1 c-3 -3 -12 -4 -19 -1 -8 3
-5 6 6 6 11 1 17 -2 13 -5z m-97 -38 c0 -2 -7 -7 -16 -10 -8 -3 -12 -2 -9 4 6
10 25 14 25 6z m-12 -53 c-10 -2 -26 -2 -35 0 -10 3 -2 5 17 5 19 0 27 -2 18
-5z m0 -20 c-10 -2 -26 -2 -35 0 -10 3 -2 5 17 5 19 0 27 -2 18 -5z m-13 -35
c-3 -8 -12 -15 -20 -15 -12 0 -11 4 3 17 20 20 25 19 17 -2z m13 -55 c-10 -2
-26 -2 -35 0 -10 3 -2 5 17 5 19 0 27 -2 18 -5z m0 -40 c-10 -2 -26 -2 -35 0
-10 3 -2 5 17 5 19 0 27 -2 18 -5z m2 -23 c12 -7 10 -9 -8 -7 -12 0 -22 5 -22
9 0 11 12 10 30 -2z m-2 -27 c-10 -2 -26 -2 -35 0 -10 3 -2 5 17 5 19 0 27 -2
18 -5z m0 -20 c-10 -2 -26 -2 -35 0 -10 3 -2 5 17 5 19 0 27 -2 18 -5z"/>
<path d="M1315 1750 c-3 -5 3 -10 14 -10 20 0 21 -5 21 -160 0 -136 -2 -160
-15 -160 -8 0 -15 -4 -15 -10 0 -6 51 -10 134 -10 l134 0 4 70 c4 83 -8 90
-39 22 -23 -50 -60 -79 -87 -69 -13 5 -16 22 -16 77 0 63 2 71 18 68 9 -2 21
-18 27 -36 16 -55 30 -30 31 56 1 87 -14 110 -31 50 -6 -18 -18 -34 -27 -36
-16 -3 -18 5 -18 67 0 68 1 71 24 71 31 0 86 -51 86 -80 0 -13 5 -20 13 -17 7
2 12 23 12 58 l0 54 -132 3 c-82 2 -134 -1 -138 -8z m103 -17 c-10 -2 -26 -2
-35 0 -10 3 -2 5 17 5 19 0 27 -2 18 -5z m-11 -19 c-3 -3 -12 -4 -19 -1 -8 3
-5 6 6 6 11 1 17 -2 13 -5z m7 -22 c3 -5 -1 -9 -9 -9 -8 0 -12 4 -9 9 3 4 7 8
9 8 2 0 6 -4 9 -8z m-7 -28 c-3 -3 -12 -4 -19 -1 -8 3 -5 6 6 6 11 1 17 -2 13
-5z m11 -21 c-10 -2 -26 -2 -35 0 -10 3 -2 5 17 5 19 0 27 -2 18 -5z m0 -20
c-10 -2 -26 -2 -35 0 -10 3 -2 5 17 5 19 0 27 -2 18 -5z m-18 -23 c0 -5 -2
-10 -4 -10 -3 0 -8 5 -11 10 -3 6 -1 10 4 10 6 0 11 -4 11 -10z m27 -5 c0 -8
-4 -12 -9 -9 -4 3 -8 9 -8 15 0 5 4 9 8 9 5 0 9 -7 9 -15z m-9 -62 c-10 -2
-26 -2 -35 0 -10 3 -2 5 17 5 19 0 27 -2 18 -5z m-11 -19 c-3 -3 -12 -4 -19
-1 -8 3 -5 6 6 6 11 1 17 -2 13 -5z m8 -27 c-19 -10 -19 -10 0 -18 15 -5 11
-7 -15 -6 -19 0 -29 2 -22 5 9 3 10 8 3 16 -7 8 -1 12 22 13 26 1 28 -1 12
-10z m3 -44 c-10 -2 -26 -2 -35 0 -10 3 -2 5 17 5 19 0 27 -2 18 -5z m0 -20
c-10 -2 -26 -2 -35 0 -10 3 -2 5 17 5 19 0 27 -2 18 -5z m145 0 c-7 -2 -19 -2
-25 0 -7 3 -2 5 12 5 14 0 19 -2 13 -5z"/>
<path d="M1645 1750 c-3 -5 3 -10 14 -10 20 0 21 -5 21 -160 0 -155 -1 -160
-21 -160 -11 0 -17 -4 -14 -10 3 -5 44 -10 91 -10 49 0 84 4 84 10 0 6 -9 10
-20 10 -18 0 -20 7 -20 74 0 108 30 112 50 7 15 -79 38 -110 80 -106 8 1 23 3
32 3 22 2 52 58 43 80 -5 14 -9 13 -20 -8 -8 -14 -15 -20 -16 -15 -1 6 -2 15
-4 20 -1 6 -3 18 -3 27 -1 10 -16 33 -33 53 -17 19 -26 35 -20 35 23 0 51 44
51 79 -1 45 -19 69 -61 81 -45 13 -226 13 -234 0z m103 -17 c-10 -2 -26 -2
-35 0 -10 3 -2 5 17 5 19 0 27 -2 18 -5z m73 -9 c21 -25 17 -103 -5 -120 -29
-21 -36 -8 -36 67 0 72 12 88 41 53z m49 -14 c0 -5 -2 -10 -4 -10 -3 0 -8 5
-11 10 -3 6 -1 10 4 10 6 0 11 -4 11 -10z m40 4 c0 -8 -19 -13 -24 -6 -3 5 1
9 9 9 8 0 15 -2 15 -3z m-150 -18 c0 -2 -7 -7 -16 -10 -8 -3 -12 -2 -9 4 6 10
25 14 25 6z m148 -13 c-10 -2 -26 -2 -35 0 -10 3 -2 5 17 5 19 0 27 -2 18 -5z
m0 -20 c-10 -2 -26 -2 -35 0 -10 3 -2 5 17 5 19 0 27 -2 18 -5z m-160 -20
c-10 -2 -26 -2 -35 0 -10 3 -2 5 17 5 19 0 27 -2 18 -5z m0 -20 c-10 -2 -26
-2 -35 0 -10 3 -2 5 17 5 19 0 27 -2 18 -5z m-12 -32 c0 -11 -6 -17 -13 -14
-6 3 -9 11 -6 19 7 20 19 17 19 -5z m21 -3 c-3 -8 -6 -5 -6 6 -1 11 2 17 5 13
3 -3 4 -12 1 -19z m118 -41 c16 -5 15 -5 -4 -4 -14 1 -26 9 -28 17 -3 10 -2
11 4 4 4 -7 17 -14 28 -17z m-127 -14 c-10 -2 -26 -2 -35 0 -10 3 -2 5 17 5
19 0 27 -2 18 -5z m160 -30 c-10 -2 -28 -2 -40 0 -13 2 -5 4 17 4 22 1 32 -1
23 -4z m-159 -19 c-7 -8 -6 -14 3 -17 7 -2 -1 -4 -18 -3 -23 0 -31 5 -29 16 4
18 0 16 30 16 18 0 21 -3 14 -12z m159 -1 c-10 -2 -26 -2 -35 0 -10 3 -2 5 17
5 19 0 27 -2 18 -5z m-21 -19 c-3 -3 -12 -4 -19 -1 -8 3 -5 6 6 6 11 1 17 -2
13 -5z m-139 -21 c-10 -2 -26 -2 -35 0 -10 3 -2 5 17 5 19 0 27 -2 18 -5z
m187 -12 c3 -5 0 -13 -6 -17 -8 -4 -9 -3 -5 4 4 7 2 12 -3 12 -6 0 -11 -5 -11
-12 0 -6 -3 -9 -6 -5 -7 7 4 27 16 27 5 0 11 -4 15 -9z m-187 -8 c-10 -2 -26
-2 -35 0 -10 3 -2 5 17 5 19 0 27 -2 18 -5z"/>
<path d="M1716 1478 c3 -5 10 -6 15 -3 13 9 11 12 -6 12 -8 0 -12 -4 -9 -9z"/>
<path d="M25 1220 c-3 -6 3 -10 14 -10 20 0 21 -5 21 -160 0 -136 -2 -160 -15
-160 -8 0 -15 -4 -15 -10 0 -13 225 -13 251 0 25 14 46 58 44 92 -2 34 -31 78
-51 78 -10 0 -6 8 12 24 39 33 40 99 2 131 -24 21 -38 23 -141 24 -71 1 -118
-2 -122 -9z m103 -17 c-10 -2 -26 -2 -35 0 -10 3 -2 5 17 5 19 0 27 -2 18 -5z
m70 -6 c15 -18 22 -77 12 -103 -5 -12 -18 -24 -29 -27 -20 -5 -21 -1 -21 69 0
56 3 74 14 74 7 0 18 -6 24 -13z m49 7 c-3 -3 -12 -4 -19 -1 -8 3 -5 6 6 6 11
1 17 -2 13 -5z m26 -28 c-3 -4 0 -12 7 -16 7 -5 2 -7 -15 -7 -16 0 -22 2 -15
7 9 6 7 10 -6 18 -16 9 -15 10 8 9 14 -1 24 -6 21 -11z m-166 -42 c-3 -3 -12
-4 -19 -1 -8 3 -5 6 6 6 11 1 17 -2 13 -5z m176 -1 c-7 -2 -21 -2 -30 0 -10 3
-4 5 12 5 17 0 24 -2 18 -5z m-155 -20 c-10 -2 -26 -2 -35 0 -10 3 -2 5 17 5
19 0 27 -2 18 -5z m155 0 c-7 -2 -21 -2 -30 0 -10 3 -4 5 12 5 17 0 24 -2 18
-5z m-155 -20 c-10 -2 -26 -2 -35 0 -10 3 -2 5 17 5 19 0 27 -2 18 -5z m152 3
c0 -7 -40 -14 -44 -7 -3 4 6 8 20 9 13 1 24 0 24 -2z m-151 -38 c-12 -21 -24
-24 -16 -4 4 10 -2 16 -16 19 -13 3 -9 4 10 4 27 -1 30 -4 22 -19z m58 -16
c42 -27 32 -152 -13 -152 -11 0 -14 19 -14 80 0 79 3 87 27 72z m63 -17 c-7
-9 -15 -13 -19 -10 -3 3 1 10 9 15 21 14 24 12 10 -5z m38 -18 c9 -11 5 -13
-19 -13 -28 0 -30 1 -13 13 10 7 19 13 20 13 1 0 6 -6 12 -13z m-160 -4 c-10
-2 -26 -2 -35 0 -10 3 -2 5 17 5 19 0 27 -2 18 -5z m-5 -40 c-7 -3 -13 -11
-13 -19 0 -8 -5 -14 -11 -14 -6 0 -9 6 -6 14 3 8 1 17 -6 19 -7 2 2 4 18 4 17
0 24 -2 18 -4z m165 -10 c-10 -2 -28 -2 -40 0 -13 2 -5 4 17 4 22 1 32 -1 23
-4z m0 -20 c-10 -2 -26 -2 -35 0 -10 3 -2 5 17 5 19 0 27 -2 18 -5z m-160 -20
c-10 -2 -26 -2 -35 0 -10 3 -2 5 17 5 19 0 27 -2 18 -5z m150 0 c-10 -2 -26
-2 -35 0 -10 3 -2 5 17 5 19 0 27 -2 18 -5z m-150 -20 c-10 -2 -26 -2 -35 0
-10 3 -2 5 17 5 19 0 27 -2 18 -5z"/>
<path d="M350 1221 c0 -5 7 -11 15 -15 12 -4 15 -32 15 -161 0 -131 -2 -155
-15 -155 -8 0 -15 -4 -15 -10 0 -6 52 -10 135 -10 l135 0 0 75 c0 41 -2 75 -5
75 -2 0 -14 -22 -26 -50 -22 -51 -54 -80 -89 -80 -18 0 -20 6 -20 76 0 66 2
75 18 72 9 -2 21 -18 27 -36 17 -59 31 -37 32 53 1 70 -2 85 -15 85 -8 0 -13
-3 -9 -6 9 -9 -20 -61 -38 -67 -13 -5 -15 5 -15 70 l0 76 33 -7 c36 -7 77 -47
77 -77 0 -10 6 -19 14 -19 10 0 14 15 13 60 l-1 60 -133 0 c-73 0 -133 -4
-133 -9z m98 -18 c-10 -2 -26 -2 -35 0 -10 3 -2 5 17 5 19 0 27 -2 18 -5z
m-24 -41 c3 -5 -1 -9 -9 -9 -8 0 -12 4 -9 9 3 4 7 8 9 8 2 0 6 -4 9 -8z m24
-49 c-10 -2 -26 -2 -35 0 -10 3 -2 5 17 5 19 0 27 -2 18 -5z m0 -20 c-10 -2
-26 -2 -35 0 -10 3 -2 5 17 5 19 0 27 -2 18 -5z m1 -35 c-12 -21 -24 -24 -16
-4 4 10 -2 16 -16 19 -13 3 -9 4 10 4 27 -1 30 -4 22 -19z m-1 -55 c-10 -2
-26 -2 -35 0 -10 3 -2 5 17 5 19 0 27 -2 18 -5z m-35 -48 c4 -8 3 -16 -1 -19
-4 -3 -9 4 -9 15 -2 23 3 25 10 4z m37 5 c0 -5 -4 -10 -9 -10 -6 0 -13 5 -16
10 -3 6 1 10 9 10 9 0 16 -4 16 -10z m7 -26 c-3 -3 -12 -4 -19 -1 -8 3 -5 6 6
6 11 1 17 -2 13 -5z m-9 -21 c-10 -2 -26 -2 -35 0 -10 3 -2 5 17 5 19 0 27 -2
18 -5z m0 -20 c-10 -2 -26 -2 -35 0 -10 3 -2 5 17 5 19 0 27 -2 18 -5z m145 0
c-7 -2 -19 -2 -25 0 -7 3 -2 5 12 5 14 0 19 -2 13 -5z"/>
<path d="M666 1221 c-3 -5 3 -11 14 -14 19 -5 20 -14 20 -161 0 -129 -2 -156
-14 -156 -8 0 -18 -4 -21 -10 -4 -6 43 -10 134 -10 l139 0 4 71 c2 39 0 73 -4
75 -4 3 -16 -15 -26 -39 -24 -54 -58 -87 -89 -87 -22 0 -23 3 -23 76 0 66 2
75 18 72 9 -2 21 -18 27 -36 17 -60 31 -37 32 53 0 70 -2 85 -15 85 -8 0 -13
-3 -9 -6 9 -9 -20 -61 -38 -67 -13 -5 -15 5 -15 70 l0 76 33 -7 c36 -7 77 -47
77 -77 0 -10 6 -19 14 -19 12 0 14 13 13 58 l-2 57 -132 3 c-72 1 -134 -2
-137 -7z m102 -18 c-10 -2 -26 -2 -35 0 -10 3 -2 5 17 5 19 0 27 -2 18 -5z m0
-90 c-10 -2 -26 -2 -35 0 -10 3 -2 5 17 5 19 0 27 -2 18 -5z m0 -20 c-10 -2
-26 -2 -35 0 -10 3 -2 5 17 5 19 0 27 -2 18 -5z m-1 -32 c0 -9 -9 -17 -18 -17
-10 0 -15 6 -11 15 4 10 1 12 -8 6 -8 -5 -11 -4 -7 1 10 18 46 14 44 -5z m1
-58 c-10 -2 -26 -2 -35 0 -10 3 -2 5 17 5 19 0 27 -2 18 -5z m-28 -40 c0 -5
-5 -15 -10 -23 -7 -12 -9 -10 -7 8 1 19 17 33 17 15z m30 -11 c0 -10 -7 -19
-15 -19 -10 0 -12 4 -5 12 5 7 7 15 3 18 -3 4 -1 7 5 7 7 0 12 -8 12 -18z m-2
-39 c-10 -2 -26 -2 -35 0 -10 3 -2 5 17 5 19 0 27 -2 18 -5z m0 -20 c-10 -2
-26 -2 -35 0 -10 3 -2 5 17 5 19 0 27 -2 18 -5z m145 0 c-7 -2 -19 -2 -25 0
-7 3 -2 5 12 5 14 0 19 -2 13 -5z"/>
<path d="M1000 1221 c0 -5 7 -11 15 -15 12 -4 15 -32 15 -161 0 -131 -2 -155
-15 -155 -8 0 -15 -4 -15 -10 0 -6 35 -10 85 -10 50 0 85 4 85 10 0 6 -9 10
-20 10 -18 0 -20 7 -20 80 0 77 1 80 20 70 11 -6 22 -25 25 -48 16 -95 42
-132 88 -127 12 1 28 3 34 4 18 2 46 60 38 79 -6 14 -9 13 -17 -8 -10 -24 -11
-23 -25 22 -8 28 -26 57 -44 72 -21 18 -25 26 -15 26 30 0 56 38 56 79 0 42
-17 67 -57 82 -31 12 -233 12 -233 0z m98 -18 c-10 -2 -26 -2 -35 0 -10 3 -2
5 17 5 19 0 27 -2 18 -5z m71 -7 c21 -25 21 -96 0 -117 -32 -32 -39 -22 -39
56 0 57 3 75 14 75 7 0 19 -6 25 -14z m-76 -13 c-7 -2 -19 -2 -25 0 -7 3 -2 5
12 5 14 0 19 -2 13 -5z m147 3 c0 -9 -30 -14 -35 -6 -4 6 3 10 14 10 12 0 21
-2 21 -4z m17 -14 c0 -10 -9 -18 -18 -18 -17 0 -17 1 -1 18 21 21 21 21 19 0z
m1 -39 c-10 -2 -26 -2 -35 0 -10 3 -2 5 17 5 19 0 27 -2 18 -5z m-160 -20
c-10 -2 -26 -2 -35 0 -10 3 -2 5 17 5 19 0 27 -2 18 -5z m0 -20 c-10 -2 -26
-2 -35 0 -10 3 -2 5 17 5 19 0 27 -2 18 -5z m146 -1 c2 -4 -4 -8 -14 -8 -10 0
-16 4 -14 8 3 4 9 8 14 8 5 0 11 -4 14 -8z m-152 -23 c-15 -5 -21 -13 -16 -21
6 -9 3 -9 -9 1 -22 17 -16 26 20 28 27 2 27 1 5 -8z m148 -54 c0 -2 -9 -3 -19
-2 -11 0 -18 5 -15 9 4 6 34 0 34 -7z m-142 -12 c-10 -2 -26 -2 -35 0 -10 3
-2 5 17 5 19 0 27 -2 18 -5z m160 -30 c-10 -2 -28 -2 -40 0 -13 2 -5 4 17 4
22 1 32 -1 23 -4z m-188 -13 c0 -5 -2 -10 -4 -10 -3 0 -8 5 -11 10 -3 6 -1 10
4 10 6 0 11 -4 11 -10z m19 -7 c-12 -15 -12 -16 4 -10 10 4 16 3 13 -2 -3 -5
-16 -8 -30 -8 -22 0 -22 1 -7 17 20 23 38 26 20 3z m169 0 c-10 -2 -26 -2 -35
0 -10 3 -2 5 17 5 19 0 27 -2 18 -5z m5 -20 c-7 -2 -19 -2 -25 0 -7 3 -2 5 12
5 14 0 19 -2 13 -5z m-165 -20 c-10 -2 -26 -2 -35 0 -10 3 -2 5 17 5 19 0 27
-2 18 -5z m169 -7 c-3 -8 -1 -17 6 -20 9 -3 9 -5 0 -5 -15 -1 -26 16 -18 29 9
15 18 12 12 -4z m-169 -13 c-10 -2 -26 -2 -35 0 -10 3 -2 5 17 5 19 0 27 -2
18 -5z"/>
<path d="M125 699 c-38 -10 -79 -53 -94 -98 -16 -48 -14 -135 4 -178 54 -130
220 -115 236 21 6 44 -17 43 -24 -1 -7 -44 -39 -83 -67 -83 -34 0 -44 38 -43
160 0 121 10 160 42 160 25 0 58 -39 66 -78 10 -50 25 -28 25 39 0 53 -12 78
-22 48 -3 -9 -9 -9 -24 -1 -31 16 -65 20 -99 11z m-8 -45 c-3 -3 -12 -4 -19
-1 -8 3 -5 6 6 6 11 1 17 -2 13 -5z m-19 -71 c-10 -2 -26 -2 -35 0 -10 3 -2 5
17 5 19 0 27 -2 18 -5z m0 -20 c-10 -2 -28 -2 -40 0 -13 2 -5 4 17 4 22 1 32
-1 23 -4z m-10 -27 c-10 -7 -16 -15 -13 -17 2 -3 -4 -5 -15 -6 -18 -2 -18 -1
-2 17 9 10 24 19 32 19 12 0 12 -2 -2 -13z m22 -16 c0 -5 -5 -10 -11 -10 -5 0
-7 5 -4 10 3 6 8 10 11 10 2 0 4 -4 4 -10z m-12 -27 c-10 -2 -28 -2 -40 0 -13
2 -5 4 17 4 22 1 32 -1 23 -4z m0 -20 c-10 -2 -28 -2 -40 0 -13 2 -5 4 17 4
22 1 32 -1 23 -4z m6 -25 c-2 -3 -13 -6 -24 -5 -24 2 -18 13 9 13 11 0 18 -4
15 -8z m9 -45 c-7 -2 -21 -2 -30 0 -10 3 -4 5 12 5 17 0 24 -2 18 -5z"/>
<path d="M435 703 c-92 -20 -135 -84 -131 -196 2 -71 27 -122 74 -153 39 -25
111 -24 149 4 82 58 98 216 30 294 -20 23 -88 62 -99 57 -2 -1 -12 -3 -23 -6z
m50 -183 c0 -119 -3 -142 -17 -157 -17 -16 -19 -16 -35 0 -15 15 -17 38 -17
158 -1 128 1 142 19 155 17 12 21 12 35 -1 12 -13 15 -43 15 -155z m-102 103
c-7 -2 -19 -2 -25 0 -7 3 -2 5 12 5 14 0 19 -2 13 -5z m160 0 c-7 -2 -19 -2
-25 0 -7 3 -2 5 12 5 14 0 19 -2 13 -5z m-160 -20 c-7 -2 -21 -2 -30 0 -10 3
-4 5 12 5 17 0 24 -2 18 -5z m170 0 c-7 -2 -21 -2 -30 0 -10 3 -4 5 12 5 17 0
24 -2 18 -5z m-175 -20 c-10 -2 -26 -2 -35 0 -10 3 -2 5 17 5 19 0 27 -2 18
-5z m180 0 c-10 -2 -26 -2 -35 0 -10 3 -2 5 17 5 19 0 27 -2 18 -5z m-180 -24
c-10 -5 -14 -17 -11 -29 4 -14 0 -20 -11 -20 -9 0 -16 5 -16 11 0 5 5 7 10 4
6 -3 10 -1 10 5 0 6 -7 13 -15 16 -25 10 -17 19 17 21 23 0 27 -2 16 -8z m186
0 c-2 -4 -13 -7 -24 -6 -10 1 -17 4 -14 8 2 4 13 7 24 6 10 -1 17 -4 14 -8z
m10 -33 c-3 -9 -12 -16 -20 -16 -11 0 -10 4 4 18 20 22 25 21 16 -2z m-247 -8
c-3 -8 -6 -5 -6 6 -1 11 2 17 5 13 3 -3 4 -12 1 -19z m209 6 c-18 -17 -23 -18
-23 -1 0 7 9 14 19 14 16 2 16 0 4 -13z m-158 -51 c-10 -2 -26 -2 -35 0 -10 3
-2 5 17 5 19 0 27 -2 18 -5z m180 0 c-10 -2 -26 -2 -35 0 -10 3 -2 5 17 5 19
0 27 -2 18 -5z m-180 -20 c-10 -2 -26 -2 -35 0 -10 3 -2 5 17 5 19 0 27 -2 18
-5z m180 0 c-10 -2 -26 -2 -35 0 -10 3 -2 5 17 5 19 0 27 -2 18 -5z m-168 -17
c0 -7 -40 -14 -44 -7 -3 4 6 8 20 9 13 1 24 0 24 -2z m137 -44 c-5 -7 -12 -10
-16 -7 -3 3 1 10 8 14 9 6 10 11 2 15 -6 4 -8 12 -4 19 4 7 9 4 13 -9 4 -10 3
-25 -3 -32z m-143 13 c-4 -8 -1 -15 7 -15 7 0 9 -3 6 -6 -4 -4 -14 -1 -22 6
-13 11 -13 15 -3 21 18 12 18 11 12 -6z"/>
</g>
</svg>
